HIERARCHY
ROOT mixamorig:Hips
{
	OFFSET 0.000000 201.639420 0.000000
	CHANNELS 6 Xposition Yposition Zposition Xrotation Yrotation Zrotation
	JOINT mixamorig:Spine
	{
		OFFSET 0.006200 19.524994 -2.481800
		CHANNELS 3 Xrotation Yrotation Zrotation
		JOINT mixamorig:Spine1
		{
			OFFSET -0.000900 22.835007 -2.825400
			CHANNELS 3 Xrotation Yrotation Zrotation
			JOINT mixamorig:Spine2
			{
				OFFSET -0.020600 26.552490 -3.193300
				CHANNELS 3 Xrotation Yrotation Zrotation
				JOINT mixamorig:Neck
				{
					OFFSET -0.060000 30.701813 1.352200
					CHANNELS 3 Xrotation Yrotation Zrotation
					JOINT mixamorig:Head
					{
						OFFSET -0.087200 22.547607 3.670900
						CHANNELS 3 Xrotation Yrotation Zrotation
						JOINT mixamorig:HeadTop_End
						{
							OFFSET -0.830600 40.355194 7.893500
							CHANNELS 3 Xrotation Yrotation Zrotation
							End Site
							{
								OFFSET 0.000000 30.592346 0.000000
							}
						}
						JOINT mixamorig:RightEye
						{
							OFFSET -6.302100 18.118591 16.197100
							CHANNELS 3 Xrotation Yrotation Zrotation
							End Site
							{
								OFFSET 0.000000 30.592346 0.000000
							}
						}
						JOINT mixamorig:LeftEye
						{
							OFFSET 6.741500 18.382690 16.401899
							CHANNELS 3 Xrotation Yrotation Zrotation
							End Site
							{
								OFFSET 0.000000 30.592346 0.000000
							}
						}
					}
				}
				JOINT mixamorig:LeftShoulder
				{
					OFFSET 11.924900 18.230499 1.425400
					CHANNELS 3 Xrotation Yrotation Zrotation
					JOINT mixamorig:LeftArm
					{
						OFFSET 25.435989 -0.697632 -5.229300
						CHANNELS 3 Xrotation Yrotation Zrotation
						JOINT mixamorig:LeftForeArm
						{
							OFFSET 54.684776 0.000000 0.000000
							CHANNELS 3 Xrotation Yrotation Zrotation
							JOINT mixamorig:LeftHand
							{
								OFFSET 55.098175 0.000000 0.000000
								CHANNELS 3 Xrotation Yrotation Zrotation
								JOINT mixamorig:LeftHandMiddle1
								{
									OFFSET 23.369751 0.000000 0.000000
									CHANNELS 3 Xrotation Yrotation Zrotation
									JOINT mixamorig:LeftHandMiddle2
									{
										OFFSET 6.378677 0.000000 0.000000
										CHANNELS 3 Xrotation Yrotation Zrotation
										JOINT mixamorig:LeftHandMiddle3
										{
											OFFSET 6.148331 0.000000 0.000000
											CHANNELS 3 Xrotation Yrotation Zrotation
											JOINT mixamorig:LeftHandMiddle4
											{
												OFFSET 6.582504 0.000000 0.000000
												CHANNELS 3 Xrotation Yrotation Zrotation
												End Site
												{
													OFFSET -1.168900 6.395691 1.028606
												}
											}
										}
									}
								}
								JOINT mixamorig:LeftHandThumb1
								{
									OFFSET 7.235672 -3.848206 5.434273
									CHANNELS 3 Xrotation Yrotation Zrotation
									JOINT mixamorig:LeftHandThumb2
									{
										OFFSET 6.568451 -3.792297 3.792300
										CHANNELS 3 Xrotation Yrotation Zrotation
										JOINT mixamorig:LeftHandThumb3
										{
											OFFSET 6.063080 -3.500519 3.500518
											CHANNELS 3 Xrotation Yrotation Zrotation
											JOINT mixamorig:LeftHandThumb4
											{
												OFFSET 4.793182 -2.767334 2.767349
												CHANNELS 3 Xrotation Yrotation Zrotation
												End Site
												{
													OFFSET 0.101639 6.054260 1.275483
												}
											}
										}
									}
								}
								JOINT mixamorig:LeftHandIndex1
								{
									OFFSET 23.101074 -0.309540 4.992809
									CHANNELS 3 Xrotation Yrotation Zrotation
									JOINT mixamorig:LeftHandIndex2
									{
										OFFSET 6.226883 0.000000 0.000000
										CHANNELS 3 Xrotation Yrotation Zrotation
										JOINT mixamorig:LeftHandIndex3
										{
											OFFSET 6.094330 0.000000 0.000000
											CHANNELS 3 Xrotation Yrotation Zrotation
											JOINT mixamorig:LeftHandIndex4
											{
												OFFSET 5.482605 0.000000 0.000000
												CHANNELS 3 Xrotation Yrotation Zrotation
												End Site
												{
													OFFSET -1.427902 5.233032 0.797164
												}
											}
										}
									}
								}
								JOINT mixamorig:LeftHandRing1
								{
									OFFSET 22.299240 0.021149 -3.964172
									CHANNELS 3 Xrotation Yrotation Zrotation
									JOINT mixamorig:LeftHandRing2
									{
										OFFSET 6.321869 0.000000 0.000000
										CHANNELS 3 Xrotation Yrotation Zrotation
										JOINT mixamorig:LeftHandRing3
										{
											OFFSET 5.899796 0.000000 0.000000
											CHANNELS 3 Xrotation Yrotation Zrotation
											JOINT mixamorig:LeftHandRing4
											{
												OFFSET 6.517899 0.000000 0.000000
												CHANNELS 3 Xrotation Yrotation Zrotation
												End Site
												{
													OFFSET -1.637299 6.232208 0.980890
												}
											}
										}
									}
								}
								JOINT mixamorig:LeftHandPinky1
								{
									OFFSET 20.463791 -0.302338 -8.562233
									CHANNELS 3 Xrotation Yrotation Zrotation
									JOINT mixamorig:LeftHandPinky2
									{
										OFFSET 6.908646 0.000000 0.000000
										CHANNELS 3 Xrotation Yrotation Zrotation
										JOINT mixamorig:LeftHandPinky3
										{
											OFFSET 4.622849 0.000000 0.000000
											CHANNELS 3 Xrotation Yrotation Zrotation
											JOINT mixamorig:LeftHandPinky4
											{
												OFFSET 5.216080 0.000000 0.000000
												CHANNELS 3 Xrotation Yrotation Zrotation
												End Site
												{
													OFFSET -0.606308 5.116241 0.814926
												}
											}
										}
									}
								}
							}
						}
					}
				}
				JOINT mixamorig:RightShoulder
				{
					OFFSET -12.001300 18.284088 1.348900
					CHANNELS 3 Xrotation Yrotation Zrotation
					JOINT mixamorig:RightArm
					{
						OFFSET -25.308500 -0.751312 -5.164599
						CHANNELS 3 Xrotation Yrotation Zrotation
						JOINT mixamorig:RightForeArm
						{
							OFFSET -54.684429 0.000000 0.000000
							CHANNELS 3 Xrotation Yrotation Zrotation
							JOINT mixamorig:RightHand
							{
								OFFSET -55.150291 0.000000 0.000000
								CHANNELS 3 Xrotation Yrotation Zrotation
								JOINT mixamorig:RightHandMiddle1
								{
									OFFSET -23.317566 0.000000 0.000000
									CHANNELS 3 Xrotation Yrotation Zrotation
									JOINT mixamorig:RightHandMiddle2
									{
										OFFSET -6.378403 0.000000 0.000000
										CHANNELS 3 Xrotation Yrotation Zrotation
										JOINT mixamorig:RightHandMiddle3
										{
											OFFSET -6.148193 0.000000 0.000000
											CHANNELS 3 Xrotation Yrotation Zrotation
											JOINT mixamorig:RightHandMiddle4
											{
												OFFSET -6.583389 0.000000 0.000000
												CHANNELS 3 Xrotation Yrotation Zrotation
												End Site
												{
													OFFSET 1.171692 6.395905 1.029786
												}
											}
										}
									}
								}
								JOINT mixamorig:RightHandThumb1
								{
									OFFSET -7.190521 -3.860474 5.435846
									CHANNELS 3 Xrotation Yrotation Zrotation
									JOINT mixamorig:RightHandThumb2
									{
										OFFSET -6.567429 -3.791718 3.791708
										CHANNELS 3 Xrotation Yrotation Zrotation
										JOINT mixamorig:RightHandThumb3
										{
											OFFSET -6.062469 -3.500153 3.500166
											CHANNELS 3 Xrotation Yrotation Zrotation
											JOINT mixamorig:RightHandThumb4
											{
												OFFSET -4.792618 -2.767029 2.767022
												CHANNELS 3 Xrotation Yrotation Zrotation
												End Site
												{
													OFFSET -0.100327 6.053253 1.276754
												}
											}
										}
									}
								}
								JOINT mixamorig:RightHandIndex1
								{
									OFFSET -23.048981 -0.310791 4.992554
									CHANNELS 3 Xrotation Yrotation Zrotation
									JOINT mixamorig:RightHandIndex2
									{
										OFFSET -6.227539 0.000000 0.000000
										CHANNELS 3 Xrotation Yrotation Zrotation
										JOINT mixamorig:RightHandIndex3
										{
											OFFSET -6.095047 0.000000 0.000000
											CHANNELS 3 Xrotation Yrotation Zrotation
											JOINT mixamorig:RightHandIndex4
											{
												OFFSET -5.484772 0.000000 0.000000
												CHANNELS 3 Xrotation Yrotation Zrotation
												End Site
												{
													OFFSET 1.420593 5.237305 0.797056
												}
											}
										}
									}
								}
								JOINT mixamorig:RightHandRing1
								{
									OFFSET -22.246323 0.020569 -3.963762
									CHANNELS 3 Xrotation Yrotation Zrotation
									JOINT mixamorig:RightHandRing2
									{
										OFFSET -6.322128 0.000000 0.000000
										CHANNELS 3 Xrotation Yrotation Zrotation
										JOINT mixamorig:RightHandRing3
										{
											OFFSET -5.900024 0.000000 0.000000
											CHANNELS 3 Xrotation Yrotation Zrotation
											JOINT mixamorig:RightHandRing4
											{
												OFFSET -6.518356 0.000000 0.000000
												CHANNELS 3 Xrotation Yrotation Zrotation
												End Site
												{
													OFFSET 1.636398 6.232697 0.982186
												}
											}
										}
									}
								}
								JOINT mixamorig:RightHandPinky1
								{
									OFFSET -20.411011 -0.303314 -8.561701
									CHANNELS 3 Xrotation Yrotation Zrotation
									JOINT mixamorig:RightHandPinky2
									{
										OFFSET -6.907349 0.000000 0.000000
										CHANNELS 3 Xrotation Yrotation Zrotation
										JOINT mixamorig:RightHandPinky3
										{
											OFFSET -4.623840 0.000000 0.000000
											CHANNELS 3 Xrotation Yrotation Zrotation
											JOINT mixamorig:RightHandPinky4
											{
												OFFSET -5.218353 0.000000 0.000000
												CHANNELS 3 Xrotation Yrotation Zrotation
												End Site
												{
													OFFSET 0.602097 5.118835 0.816273
												}
											}
										}
									}
								}
							}
						}
					}
				}
			}
		}
	}
	JOINT mixamorig:LeftUpLeg
	{
		OFFSET 18.168400 -13.561905 -0.039000
		CHANNELS 3 Xrotation Yrotation Zrotation
		JOINT mixamorig:LeftLeg
		{
			OFFSET 0.577358 -80.825211 -3.695000
			CHANNELS 3 Xrotation Yrotation Zrotation
			JOINT mixamorig:LeftFoot
			{
				OFFSET -0.577356 -83.370262 -6.520700
				CHANNELS 3 Xrotation Yrotation Zrotation
				JOINT mixamorig:LeftToeBase
				{
					OFFSET 0.750401 -20.798306 25.135401
					CHANNELS 3 Xrotation Yrotation Zrotation
					JOINT mixamorig:LeftToe_End
					{
						OFFSET -0.000500 0.001200 19.917799
						CHANNELS 3 Xrotation Yrotation Zrotation
						End Site
						{
							OFFSET 0.000000 19.917805 0.000000
						}
					}
				}
			}
		}
	}
	JOINT mixamorig:RightUpLeg
	{
		OFFSET -18.162500 -13.585098 -0.041000
		CHANNELS 3 Xrotation Yrotation Zrotation
		JOINT mixamorig:RightLeg
		{
			OFFSET -0.595024 -80.945297 -3.631900
			CHANNELS 3 Xrotation Yrotation Zrotation
			JOINT mixamorig:RightFoot
			{
				OFFSET 0.595024 -83.218193 -6.561200
				CHANNELS 3 Xrotation Yrotation Zrotation
				JOINT mixamorig:RightToeBase
				{
					OFFSET -0.753601 -20.807106 25.115000
					CHANNELS 3 Xrotation Yrotation Zrotation
					JOINT mixamorig:RightToe_End
					{
						OFFSET 0.000299 0.001700 19.918200
						CHANNELS 3 Xrotation Yrotation Zrotation
						End Site
						{
							OFFSET 0.000000 19.918203 0.000000
						}
					}
				}
			}
		}
	}
}
MOTION
Frames: 4
Frame Time: 0.033333
0.067712 194.729355 -1.376579 -12.668672 -26.246248 -1.102564 5.940233 -5.094274 -1.699562 16.592147 -0.754708 -0.312720 16.584391 -0.823935 -0.322659 1.566057 7.115880 1.253628 -9.571146 20.825081 10.199352 -0.000001 0.000000 -0.000001 -0.000001 0.000000 -0.000001 -0.000001 0.000000 -0.000001 -37.527057 -5.330613 3.571121 -49.061693 -15.423517 -67.735881 0.000000 -49.357665 -0.000018 -121.275719 5.676038 27.777333 0.003129 5.232842 -52.987344 3.349263 5.290916 -64.647385 0.269842 1.759155 -17.439816 0.000003 0.000001 -0.000003 4.803916 10.391522 5.042331 18.996001 -3.361271 8.412546 -4.600900 -9.954794 1.535975 -0.000002 0.000002 -0.000000 -0.467273 3.603364 -36.889155 2.931259 5.072656 -60.021571 0.509597 2.391721 -24.052914 0.000005 -0.000000 0.000000 -1.182837 5.068739 -60.487985 4.095811 5.582463 -72.514513 0.603886 2.592457 -26.221168 -0.000001 0.000001 -0.000002 -7.240464 4.434499 -72.905951 3.343790 5.288334 -64.588099 0.187395 1.471377 -14.516090 0.000002 -0.000002 -0.000002 -40.926142 -8.896373 -8.660798 -41.864582 57.080434 94.901531 0.000009 99.829676 -0.000034 -55.715902 -17.306308 -36.712615 3.942895 -7.470126 54.022118 6.483788 -4.284767 113.114899 0.248720 -1.503057 18.790265 -0.000001 0.000000 -0.000001 8.741426 -5.263000 11.143987 22.433768 -19.575215 -17.994835 0.618362 -54.182709 -32.740638 0.000001 0.000001 0.000001 -0.800154 0.952153 12.900329 0.747332 -2.532266 32.880671 0.615645 -2.316032 29.767631 0.000002 -0.000000 0.000000 -3.223941 -2.661107 56.852531 5.526992 -4.575393 100.775876 1.757443 -3.645830 51.460544 0.000000 -0.000000 -0.000002 -4.312711 -3.206953 64.954792 3.948866 -4.603094 81.242723 2.219719 -3.969582 58.413123 -0.000001 0.000001 -0.000002 -7.597324 37.622106 15.243924 48.285121 2.585321 3.576220 -4.275154 5.541872 0.631695 -9.165634 0.855535 -8.660484 -0.000002 0.000001 -0.000000 -4.887763 9.020061 4.783291 32.319776 -5.567264 2.761101 -18.888516 -20.006083 -4.804361 0.104666 0.000380 -0.179426 -0.000000 0.000002 -0.000001 
0.105956 194.571976 -7.217861 -11.844086 -25.601342 -0.526371 4.690735 -5.728568 -1.749082 16.963699 -0.780691 -0.182676 16.955958 -0.856492 -0.197296 1.496272 7.184940 1.378278 -10.149223 20.855827 10.246796 0.000000 -0.000001 -0.000003 0.000000 -0.000001 -0.000003 0.000000 -0.000001 -0.000003 -37.539693 -5.504275 3.541145 -48.710157 -15.182676 -67.377296 -0.000028 -50.786824 -0.000039 -121.591110 4.701404 28.813525 0.040766 5.279901 -53.277753 3.344112 5.288473 -64.591665 0.268128 1.753719 -17.384208 0.000003 0.000001 -0.000000 4.839424 10.471407 5.081698 18.925744 -3.645635 8.529160 -4.600896 -9.954766 1.535967 0.000000 0.000000 0.000002 -0.398900 3.717704 -37.177252 2.933966 5.074230 -60.052376 0.510744 2.394272 -24.080409 -0.000005 -0.000000 -0.000002 -1.099798 5.133966 -60.678444 4.100408 5.583894 -72.561628 0.605844 2.596424 -26.264379 -0.000001 -0.000001 0.000001 -7.303265 4.450210 -73.064432 3.347798 5.290227 -64.631601 0.188493 1.475587 -14.558424 -0.000002 -0.000002 0.000002 -40.965702 -8.854851 -8.823096 -41.745689 56.502842 94.251283 0.000272 100.579631 -0.000283 -56.545422 -18.295840 -36.725196 3.974277 -7.500609 53.874695 6.483783 -4.284739 113.114906 0.248720 -1.503057 18.790265 0.000000 0.000000 -0.000000 8.731675 -5.254016 11.106114 22.445924 -19.604098 -17.996251 0.618366 -54.182719 -32.740618 -0.000001 -0.000001 -0.000005 -0.799939 0.952528 12.896371 0.747332 -2.532264 32.880667 0.613297 -2.311973 29.709957 0.000002 0.000000 -0.000002 -3.224232 -2.654780 56.807069 5.525052 -4.575764 100.751485 1.755935 -3.644622 51.436635 -0.000001 0.000000 -0.000002 -4.362543 -3.181947 64.944779 3.941087 -4.601900 81.145386 2.212783 -3.965319 58.312747 0.000000 -0.000000 -0.000001 1.288987 38.602412 11.387974 44.874739 3.729078 3.094165 -0.563220 2.301807 -6.600631 -12.116651 1.606784 -10.496597 -0.000001 -0.000001 0.000000 -7.973231 9.164329 5.433664 32.748551 -5.605403 3.374727 -17.470079 -20.774374 -5.936177 0.119798 0.000485 -0.205178 -0.000000 0.000001 -0.000000 
0.252177 193.882874 -13.838535 -11.293941 -25.239395 -0.050412 3.633948 -6.184092 -2.038449 17.334704 -0.792787 -0.074679 17.327391 -0.870150 -0.093233 1.374539 7.212062 1.552780 -10.594633 20.850302 10.274181 0.000000 0.000000 0.000001 0.000000 0.000000 0.000001 0.000000 0.000000 0.000001 -37.551861 -5.684454 3.551704 -49.009613 -15.261074 -67.328740 -0.000034 -51.443779 -0.000040 -121.654767 4.160191 29.993516 0.095139 5.339591 -53.581461 3.343457 5.288165 -64.584404 0.267905 1.752977 -17.376572 0.000002 -0.000001 0.000000 4.888697 10.563697 5.066566 18.889698 -3.792645 8.588893 -4.601286 -9.955800 1.535639 0.000003 -0.000000 0.000003 -0.308816 3.860136 -37.487661 2.934976 5.074806 -60.063789 0.511060 2.394963 -24.087707 -0.000002 -0.000000 -0.000001 -1.026422 5.189137 -60.827138 4.103217 5.584790 -72.590663 0.607010 2.598794 -26.290119 -0.000001 0.000000 -0.000004 -7.300204 4.483721 -73.210366 3.350509 5.291511 -64.660971 0.189242 1.478471 -14.587534 0.000004 0.000001 0.000003 -40.985602 -8.834826 -8.904025 -41.693083 55.696098 93.717995 0.000251 101.416691 -0.000284 -57.650137 -19.265068 -37.266458 3.981307 -7.506311 53.863483 6.482826 -4.285184 113.102086 0.248719 -1.503057 18.790267 0.000001 -0.000000 -0.000002 8.689211 -5.223464 10.953649 22.421494 -19.554063 -18.003554 0.619798 -54.178061 -32.738394 -0.000001 -0.000000 -0.000004 -0.796673 0.949295 12.863537 0.747331 -2.532265 32.880674 0.612019 -2.309745 29.678265 0.000001 0.000001 -0.000002 -3.224622 -2.648965 56.765986 5.524531 -4.575863 100.745283 1.755556 -3.644331 51.430659 -0.000002 -0.000000 -0.000001 -4.393421 -3.161175 64.904214 3.951329 -4.603492 81.273268 2.221490 -3.970665 58.438395 0.000001 -0.000001 -0.000001 10.088930 37.370017 6.468548 40.506536 5.417251 1.988790 3.363089 -3.356514 -9.305090 -18.913012 1.677129 -6.704375 0.000000 0.000000 0.000000 -11.477003 9.523001 6.540397 33.809901 -5.555259 3.468857 -16.029679 -21.841972 -6.883139 0.110531 0.000414 -0.189302 -0.000000 -0.000001 -0.000000 
0.586621 193.070572 -20.887320 -10.961874 -25.232734 0.003143 2.886689 -6.487326 -2.065804 17.671094 -0.789354 -0.057776 17.663945 -0.868679 -0.079696 1.252686 7.241592 1.635141 -10.835112 20.823710 10.228872 -0.000000 0.000000 -0.000000 -0.000000 0.000000 -0.000000 -0.000000 0.000000 -0.000000 -37.548139 -5.756106 3.849288 -49.382193 -15.603320 -67.550031 -0.000013 -51.792713 -0.000007 -121.692579 3.647649 31.015237 0.090043 5.342589 -53.688029 3.341514 5.287242 -64.563476 0.267258 1.750950 -17.355777 -0.000001 0.000001 -0.000002 4.929255 10.670172 5.170860 18.950882 -3.543689 8.485378 -4.589357 -9.918795 1.530979 -0.000001 0.000006 -0.000001 -0.285537 3.901361 -37.634226 2.937702 5.076344 -60.094484 0.512284 2.397721 -24.117229 -0.000001 -0.000001 0.000001 -0.993295 5.215498 -60.911757 4.103679 5.584939 -72.595465 0.607163 2.599112 -26.293585 0.000000 0.000001 -0.000003 -7.266628 4.509366 -73.279337 3.349562 5.291054 -64.650718 0.188986 1.477491 -14.577649 0.000000 0.000001 -0.000001 -40.966416 -8.826208 -8.840814 -41.228934 54.946772 92.906234 0.000193 102.288018 -0.000197 -58.808666 -19.936612 -37.833207 3.976178 -7.501740 53.879551 6.479766 -4.286435 113.061460 0.248719 -1.503057 18.790264 0.000002 -0.000000 0.000001 8.680956 -5.213158 10.931173 22.403044 -19.519465 -18.011146 0.616029 -54.157270 -32.735464 -0.000001 0.000002 -0.000002 -0.793451 0.931331 12.873185 0.747332 -2.532265 32.880671 0.611761 -2.309252 29.671537 -0.000000 -0.000000 -0.000001 -3.225808 -2.647652 56.761980 5.520696 -4.576590 100.697049 1.752482 -3.641884 51.382229 0.000001 -0.000000 0.000001 -4.405457 -3.150769 64.873547 3.952306 -4.603651 81.285398 2.222259 -3.971119 58.449665 0.000002 -0.000001 0.000001 17.294432 34.986814 2.091999 35.991200 2.697838 0.245842 5.683205 -4.152358 -10.287062 -22.695527 0.738781 -2.188717 -0.000001 0.000001 -0.000001 -14.725792 9.803179 7.902377 34.208002 -5.573296 3.488886 -14.013140 -22.714926 -7.740942 0.113376 0.000450 -0.194175 -0.000000 -0.000000 -0.000000 
